<svg version="1.1" id="Layer_1" xmlns="http://www.w3.org/2000/svg" xmlns:xlink="http://www.w3.org/1999/xlink" x="0px" y="0px"
	 width="100%" viewBox="0 0 256 256" enable-background="new 0 0 256 256" xml:space="preserve">
<path fill="#1E293B" opacity="1.000000" stroke="none" 
	d="
M156.000000,257.000000 
	C137.979111,257.000000 119.958214,257.000000 101.353882,256.659882 
	C99.140060,255.602371 97.523033,254.852661 95.877121,254.172852 
	C85.484108,249.880264 74.444756,246.707993 64.802238,241.122726 
	C29.928846,220.922958 9.606262,190.343033 2.937020,150.620224 
	C2.722268,149.341141 1.664683,148.203552 1.000000,147.000000 
	C1.000000,136.979111 1.000000,126.958214 1.348113,116.329529 
	C2.123165,114.690941 2.761984,113.696594 2.946546,112.624077 
	C10.784229,67.078262 35.293270,33.840710 77.671768,15.369218 
	C116.340347,-1.485235 154.870010,0.924510 191.897949,21.489569 
	C214.553040,34.072044 231.346283,52.491123 242.692215,75.606430 
	C255.440353,101.578506 258.346588,129.163254 252.764389,157.362625 
	C246.787949,187.553680 231.185501,212.222321 207.086578,231.382584 
	C193.230194,242.399338 177.648880,250.048767 160.457535,254.420227 
	C158.856537,254.827347 157.480484,256.119019 156.000000,257.000000 
M170.890915,35.535698 
	C152.207733,27.954962 133.072601,24.091133 112.830467,27.724176 
	C80.322296,33.558720 55.080135,49.998734 38.042953,78.494049 
	C27.966364,95.347527 22.791750,113.890602 23.313385,133.310959 
	C23.871599,154.093201 29.921253,173.637054 42.224350,190.894394 
	C66.607445,225.096146 100.267967,239.642029 141.368896,235.479507 
	C169.491760,232.631348 193.061691,219.233093 210.565994,196.695633 
	C227.197403,175.282104 235.780518,150.913605 233.043182,123.566505 
	C228.982300,82.996552 208.349243,53.681728 170.890915,35.535698 
z"/>
<path fill="#0F172A" opacity="1.000000" stroke="none" 
	d="
M171.239288,35.689320 
	C208.349243,53.681728 228.982300,82.996552 233.043182,123.566505 
	C235.780518,150.913605 227.197403,175.282104 210.565994,196.695633 
	C193.061691,219.233093 169.491760,232.631348 141.368896,235.479507 
	C100.267967,239.642029 66.607445,225.096146 42.224350,190.894394 
	C29.921253,173.637054 23.871599,154.093201 23.313385,133.310959 
	C22.791750,113.890602 27.966364,95.347527 38.042953,78.494049 
	C55.080135,49.998734 80.322296,33.558720 112.830467,27.724176 
	C133.072601,24.091133 152.207733,27.954962 171.239288,35.689320 
M159.713837,155.781113 
	C164.669815,150.789185 164.512833,147.676620 158.846832,142.450974 
	C158.228943,142.309799 157.611053,142.168640 156.062561,141.914078 
	C128.915894,141.895920 101.769226,141.860138 74.622574,141.874969 
	C69.385025,141.877838 68.040779,143.496628 67.999222,149.384766 
	C67.953377,155.880951 68.890350,157.286713 74.077728,157.289398 
	C101.722435,157.303665 129.367188,157.218948 157.411774,157.414047 
	C157.981964,157.004929 158.552155,156.595825 159.713837,155.781113 
M189.590378,111.242607 
	C188.130280,110.657845 186.702057,109.692909 185.203476,109.567291 
	C182.061951,109.303955 178.883392,109.479729 175.720047,109.479691 
	C142.421463,109.479340 109.122711,109.438728 75.824661,109.571571 
	C73.574043,109.580544 69.896996,110.350487 69.372894,111.719543 
	C68.210228,114.756691 67.918922,118.550293 68.597092,121.755127 
	C69.335014,125.242355 72.903198,125.038628 75.994003,125.034012 
	C111.623405,124.980835 147.252914,125.000114 182.882401,124.998947 
	C183.881302,124.998917 185.193192,125.389130 185.820389,124.902718 
	C187.696884,123.447464 189.970627,121.927986 190.828003,119.900269 
	C191.654648,117.945267 190.910828,115.326233 190.873871,112.474686 
	C190.587753,112.299316 190.301636,112.123940 189.590378,111.242607 
M190.521393,88.908409 
	C190.626526,88.603615 190.731674,88.298813 190.948929,87.101471 
	C190.910492,84.406342 190.872055,81.711220 190.870285,78.490723 
	C190.583145,78.318962 190.296005,78.147202 189.545807,77.318001 
	C187.879364,76.805305 186.213943,75.848999 184.546326,75.845146 
	C147.915802,75.760361 111.285019,75.766418 74.654327,75.797478 
	C69.050049,75.802231 68.012604,77.136658 67.999748,83.721252 
	C67.987434,90.028183 68.903854,91.211784 74.467560,91.217430 
	C111.264748,91.254768 148.062088,91.266838 184.858887,91.143333 
	C186.578293,91.137566 188.293106,89.761963 190.521393,88.908409 
M199.068604,159.463715 
	C204.175415,155.919189 206.073425,151.080582 204.884445,144.470978 
	C204.604584,144.271530 204.324738,144.072067 203.741241,143.403839 
	C203.175430,142.929123 202.609619,142.454407 201.668365,141.279984 
	C200.668884,140.847626 199.697205,140.129318 198.665451,140.029083 
	C191.717773,139.354019 184.455368,144.308273 180.622528,152.315384 
	C180.622528,152.315384 180.388840,152.692139 179.851929,153.025650 
	C175.186691,157.958450 170.521469,162.891251 165.617340,168.464386 
	C161.083679,173.313766 156.550018,178.163147 151.437378,183.073029 
	C150.958298,183.399033 150.479233,183.725037 149.470428,183.862717 
	C149.018433,183.532883 148.566437,183.203049 148.053482,182.142700 
	C145.062775,178.579620 142.648727,174.085083 138.891998,171.759338 
	C136.077682,170.017014 131.267090,169.300507 127.628654,173.726959 
	C127.102745,174.526733 126.293518,175.262390 126.095787,176.136398 
	C124.531471,183.050812 128.305649,188.098389 132.222626,193.054672 
	C133.806915,195.059311 135.484375,196.990311 137.082321,199.651306 
	C139.655396,202.379471 141.958710,205.470474 144.922119,207.673630 
	C146.282608,208.685104 148.938858,207.953644 151.788956,207.904572 
	C153.925247,206.999603 156.570267,206.606750 158.097931,205.089142 
	C161.948090,201.264313 165.294617,196.932526 169.490723,192.632248 
	C171.595459,190.369308 173.700195,188.106384 176.226486,185.449875 
	C176.765594,184.901703 177.304688,184.353516 178.476883,183.643967 
	C179.585831,182.378738 180.694763,181.113510 182.186249,179.341492 
	C182.444489,178.540924 182.702728,177.740341 183.592804,176.718094 
	C188.577621,171.125992 193.562424,165.533875 199.068604,159.463715 
z"/>
<path fill="#22C35D" opacity="1.000000" stroke="none" 
	d="
M180.388840,152.692139 
	C180.388840,152.692139 180.622528,152.315384 181.105637,152.059189 
	C183.033936,150.706223 184.801468,149.856964 185.867340,148.468918 
	C190.024918,143.054642 195.373642,140.957123 202.043808,141.979675 
	C202.609619,142.454407 203.175430,142.929123 204.014603,143.841843 
	C204.475204,144.535324 204.679321,144.776505 204.900314,145.003418 
	C206.073425,151.080582 204.175415,155.919189 198.540070,159.866119 
	C192.994690,165.825607 187.977829,171.382690 182.960983,176.939774 
	C182.702728,177.740341 182.444489,178.540924 181.685104,179.686539 
	C180.070572,181.289505 178.957184,182.547424 177.843796,183.805344 
	C177.304688,184.353516 176.765594,184.901703 175.697174,185.745087 
	C173.059555,188.294846 170.951279,190.549377 168.843002,192.803925 
	C165.294617,196.932526 161.948090,201.264313 158.097931,205.089142 
	C156.570267,206.606750 153.925247,206.999603 151.090820,207.777390 
	C147.759811,206.141769 145.062653,204.733093 142.515213,203.091995 
	C140.616272,201.868698 138.910965,200.344849 137.119446,198.954819 
	C135.484375,196.990311 133.806915,195.059311 132.222626,193.054672 
	C128.305649,188.098389 124.531471,183.050812 126.095787,176.136398 
	C126.293518,175.262390 127.102745,174.526733 128.313248,173.405182 
	C137.249817,171.567749 143.178329,174.608780 146.868225,182.132904 
	C147.046326,182.496063 147.688431,182.631653 148.114456,182.873215 
	C148.566437,183.203049 149.018433,183.532883 149.936691,184.057022 
	C150.940765,183.838409 151.478561,183.425476 152.016373,183.012543 
	C156.550018,178.163147 161.083679,173.313766 166.059814,168.049500 
	C171.131149,162.653793 175.759995,157.672974 180.388840,152.692139 
z"/>
<path fill="#6366F1" opacity="1.000000" stroke="none" 
	d="
M190.833633,79.016090 
	C190.872055,81.711220 190.910492,84.406342 190.735870,87.703995 
	C190.309296,88.515373 190.138382,88.754639 190.010056,89.024323 
	C188.293106,89.761963 186.578293,91.137566 184.858887,91.143333 
	C148.062088,91.266838 111.264748,91.254768 74.467560,91.217430 
	C68.903854,91.211784 67.987434,90.028183 67.999748,83.721252 
	C68.012604,77.136658 69.050049,75.802231 74.654327,75.797478 
	C111.285019,75.766418 147.915802,75.760361 184.546326,75.845146 
	C186.213943,75.848999 187.879364,76.805305 189.889069,77.839188 
	C190.414993,78.595245 190.615433,78.813812 190.833633,79.016090 
z"/>
<path fill="#6366F1" opacity="1.000000" stroke="none" 
	d="
M190.856964,112.998924 
	C190.910828,115.326233 191.654648,117.945267 190.828003,119.900269 
	C189.970627,121.927986 187.696884,123.447464 185.820389,124.902718 
	C185.193192,125.389130 183.881302,124.998917 182.882401,124.998947 
	C147.252914,125.000114 111.623405,124.980835 75.994003,125.034012 
	C72.903198,125.038628 69.335014,125.242355 68.597092,121.755127 
	C67.918922,118.550293 68.210228,114.756691 69.372894,111.719543 
	C69.896996,110.350487 73.574043,109.580544 75.824661,109.571571 
	C109.122711,109.438728 142.421463,109.479340 175.720047,109.479691 
	C178.883392,109.479729 182.061951,109.303955 185.203476,109.567291 
	C186.702057,109.692909 188.130280,110.657845 189.923950,111.785339 
	C190.440643,112.566582 190.640457,112.790199 190.856964,112.998924 
z"/>
<path fill="#6366F0" opacity="1.000000" stroke="none" 
	d="
M157.011902,157.168472 
	C129.367188,157.218948 101.722435,157.303665 74.077728,157.289398 
	C68.890350,157.286713 67.953377,155.880951 67.999222,149.384766 
	C68.040779,143.496628 69.385025,141.877838 74.622574,141.874969 
	C101.769226,141.860138 128.915894,141.895920 156.658752,142.260315 
	C157.857452,142.693497 158.459991,142.780457 159.062515,142.867432 
	C164.512833,147.676620 164.669815,150.789185 159.106628,155.994659 
	C158.003571,156.528305 157.507736,156.848389 157.011902,157.168472 
z"/>
<path fill="#15673B" opacity="1.000000" stroke="none" 
	d="
M148.083969,182.507965 
	C147.688431,182.631653 147.046326,182.496063 146.868225,182.132904 
	C143.178329,174.608780 137.249817,171.567749 128.548996,173.099335 
	C131.267090,169.300507 136.077682,170.017014 138.891998,171.759338 
	C142.648727,174.085083 145.062775,178.579620 148.083969,182.507965 
z"/>
<path fill="#1EAA53" opacity="1.000000" stroke="none" 
	d="
M201.856079,141.629822 
	C195.373642,140.957123 190.024918,143.054642 185.867340,148.468918 
	C184.801468,149.856964 183.033936,150.706223 181.256866,151.897095 
	C184.455368,144.308273 191.717773,139.354019 198.665451,140.029083 
	C199.697205,140.129318 200.668884,140.847626 201.856079,141.629822 
z"/>
<path fill="#1A934A" opacity="1.000000" stroke="none" 
	d="
M183.276886,176.828934 
	C187.977829,171.382690 192.994690,165.825607 198.279388,160.105148 
	C193.562424,165.533875 188.577621,171.125992 183.276886,176.828934 
z"/>
<path fill="#15663B" opacity="1.000000" stroke="none" 
	d="
M180.120392,152.858887 
	C175.759995,157.672974 171.131149,162.653793 166.179260,167.729340 
	C170.521469,162.891251 175.186691,157.958450 180.120392,152.858887 
z"/>
<path fill="#1B964B" opacity="1.000000" stroke="none" 
	d="
M137.100891,199.303070 
	C138.910965,200.344849 140.616272,201.868698 142.515213,203.091995 
	C145.062653,204.733093 147.759811,206.141769 150.700104,207.831390 
	C148.938858,207.953644 146.282608,208.685104 144.922119,207.673630 
	C141.958710,205.470474 139.655396,202.379471 137.100891,199.303070 
z"/>
<path fill="#177941" opacity="1.000000" stroke="none" 
	d="
M169.166870,192.718079 
	C170.951279,190.549377 173.059555,188.294846 175.486389,185.941879 
	C173.700195,188.106384 171.595459,190.369308 169.166870,192.718079 
z"/>
<path fill="#177941" opacity="1.000000" stroke="none" 
	d="
M178.160339,183.724655 
	C178.957184,182.547424 180.070572,181.289505 181.493835,179.939941 
	C180.694763,181.113510 179.585831,182.378738 178.160339,183.724655 
z"/>
<path fill="#292E6B" opacity="1.000000" stroke="none" 
	d="
M158.954681,142.659210 
	C158.459991,142.780457 157.857452,142.693497 157.124054,142.317001 
	C157.611053,142.168640 158.228943,142.309799 158.954681,142.659210 
z"/>
<path fill="#323680" opacity="1.000000" stroke="none" 
	d="
M157.211838,157.291260 
	C157.507736,156.848389 158.003571,156.528305 158.810883,156.197479 
	C158.552155,156.595825 157.981964,157.004929 157.211838,157.291260 
z"/>
<path fill="#188044" opacity="1.000000" stroke="none" 
	d="
M151.726868,183.042786 
	C151.478561,183.425476 150.940765,183.838409 150.201553,184.151184 
	C150.479233,183.725037 150.958298,183.399033 151.726868,183.042786 
z"/>
<path fill="#5D60E3" opacity="1.000000" stroke="none" 
	d="
M190.865417,112.736801 
	C190.640457,112.790199 190.440643,112.566582 190.136505,112.138313 
	C190.301636,112.123940 190.587753,112.299316 190.865417,112.736801 
z"/>
<path fill="#5558D1" opacity="1.000000" stroke="none" 
	d="
M190.265717,88.966370 
	C190.138382,88.754639 190.309296,88.515373 190.679810,88.150269 
	C190.731674,88.298813 190.626526,88.603615 190.265717,88.966370 
z"/>
<path fill="#1EAA53" opacity="1.000000" stroke="none" 
	d="
M204.892380,144.737198 
	C204.679321,144.776505 204.475204,144.535324 204.166412,144.076233 
	C204.324738,144.072067 204.604584,144.271530 204.892380,144.737198 
z"/>
<path fill="#5659D2" opacity="1.000000" stroke="none" 
	d="
M190.851959,78.753403 
	C190.615433,78.813812 190.414993,78.595245 190.120590,78.167908 
	C190.296005,78.147202 190.583145,78.318962 190.851959,78.753403 
z"/>
</svg>